# xmcd
# Copyright (C) 1995-1998 Ti Kan
#
# Track frame offsets:
#       150
#       6831
#       20192
#       36817
#       52349
#       71695
#       87294
#       107237
#       125285
#       141907
#       161803
#
# Disc length: 2428 seconds
#
# Revision: 0
# Processed by: cddbd v1.5.2PL0 Copyright (c) Steve Scherf et al.
# Submitted via: CD-Import v1.0
#
DISCID=9f097a0b
DTITLE=The Song Circus - The Song Circus
DYEAR=2009
DGENRE=
TTITLE0=Ladies And Gentlemen
TTITLE1=Ease Your Mind
TTITLE2=Lie
TTITLE3=Christine
TTITLE4=Where's The Light
TTITLE5=Quasi In Pension
TTITLE6=Face In The Dirt
TTITLE7=Heart Of Stone
TTITLE8=Push The Door
TTITLE9=Zapping
TTITLE10=From The First To The Final Act
EXTD=
EXTT0=
EXTT1=
EXTT2=
EXTT3=
EXTT4=
EXTT5=
EXTT6=
EXTT7=
EXTT8=
EXTT9=
EXTT10=
PLAYORDER=
